<svg xmlns="http://www.w3.org/2000/svg" width="46" height="41.999" viewBox="0 0 46 41.999">
  <g id="Group_2" data-name="Group 2" transform="translate(-317 -1010.001)">
    <rect id="Rectangle_3" data-name="Rectangle 3" width="36" height="4" transform="translate(322 1015)" fill="#398dff"/>
    <rect id="Rectangle_3_copy" data-name="Rectangle 3 copy" width="36" height="12" transform="translate(322 1021)" fill="#add0ff"/>
    <path id="Forma_1" data-name="Forma 1" d="M359.481,1010H320.519a3.525,3.525,0,0,0-3.519,3.523v26.833a3.525,3.525,0,0,0,3.519,3.523h16.346v6.44H326.191a.84.84,0,0,0,0,1.68h27.618a.84.84,0,0,0,0-1.68H343.135v-6.44h16.346a3.525,3.525,0,0,0,3.519-3.523v-26.833A3.525,3.525,0,0,0,359.481,1010Zm-18.013,40.319h-2.937v-6.44h2.937Zm19.865-9.963a1.85,1.85,0,0,1-1.853,1.843H320.519a1.85,1.85,0,0,1-1.853-1.843v-2.276h42.667Zm0-3.956H318.667v-22.877a1.85,1.85,0,0,1,1.853-1.843h38.962a1.85,1.85,0,0,1,1.853,1.843Z" fill="#5b6168"/>
  </g>
</svg>
