<svg xmlns="http://www.w3.org/2000/svg" width="16.997" height="15.999" viewBox="0 0 16.997 15.999">
  <path id="Forma_1" data-name="Forma 1" d="M212.655,2522a2.636,2.636,0,0,1-2.656-2.668v-9.6a2.635,2.635,0,0,1,2.656-2.667h2.125v-.534a.531.531,0,1,1,1.062,0v.534h5.312v-.534a.531.531,0,1,1,1.062,0v.534h2.125a2.635,2.635,0,0,1,2.656,2.667v9.6A2.636,2.636,0,0,1,224.34,2522Zm-1.594-2.668a1.638,1.638,0,0,0,1.594,1.6H224.34a1.638,1.638,0,0,0,1.594-1.6V2512.4H211.061Zm0-9.6v1.6h14.873v-1.6a1.638,1.638,0,0,0-1.594-1.6h-2.125v.534a.531.531,0,1,1-1.062,0v-.534h-5.312v.534a.531.531,0,1,1-1.062,0v-.534h-2.125A1.638,1.638,0,0,0,211.061,2509.733Zm11.473,9.279a1.156,1.156,0,0,1-.319-.747.97.97,0,0,1,.319-.746,1.024,1.024,0,0,1,1.488,0,1.034,1.034,0,0,1,0,1.493,1.026,1.026,0,0,1-1.488,0Zm-3.187,0a1.034,1.034,0,0,1,0-1.493,1.024,1.024,0,0,1,1.488,0,1.054,1.054,0,1,1-1.488,1.493Zm-3.187,0a1.034,1.034,0,0,1,0-1.493,1.024,1.024,0,0,1,1.488,0,1.034,1.034,0,0,1,0,1.493,1.026,1.026,0,0,1-1.488,0Zm-3.187,0a1.156,1.156,0,0,1-.319-.747.97.97,0,0,1,.319-.746,1.024,1.024,0,0,1,1.488,0,1.034,1.034,0,0,1,0,1.493,1.026,1.026,0,0,1-1.488,0Zm9.561-3.2a1.034,1.034,0,0,1,0-1.493,1.023,1.023,0,0,1,1.488,0,1.152,1.152,0,0,1,.319.746,1.051,1.051,0,0,1-1.806.747Zm-3.187,0a1.034,1.034,0,0,1,0-1.493,1.023,1.023,0,0,1,1.488,0,1.152,1.152,0,0,1,.319.746,1.051,1.051,0,0,1-1.806.747Zm-3.187,0a1.034,1.034,0,0,1,0-1.493,1.023,1.023,0,0,1,1.488,0,1.034,1.034,0,0,1,0,1.493,1.025,1.025,0,0,1-1.488,0Zm-3.187,0a1.034,1.034,0,0,1,0-1.493,1.023,1.023,0,0,1,1.488,0,1.034,1.034,0,0,1,0,1.493,1.025,1.025,0,0,1-1.488,0Z" transform="translate(-209.999 -2506)" fill="#b0b0b0"/>
</svg>
