<svg xmlns="http://www.w3.org/2000/svg" width="64.026" height="42" viewBox="0 0 64.026 42">
  <g id="Group_3" data-name="Group 3" transform="translate(-601.972 -1011)">
    <path id="Shape_1" data-name="Shape 1" d="M627.611,1052.815a3.337,3.337,0,0,1-1.914-1.7,3.2,3.2,0,0,1-.328-1.806l-1.429.712a3.224,3.224,0,0,1-1.455.343,3.317,3.317,0,0,1-2.99-1.873,3.413,3.413,0,0,1-.289-2.018c-.144.013-.288.026-.432.026a3.317,3.317,0,0,1-2.99-1.873,3.356,3.356,0,0,1,.656-3.851,3.283,3.283,0,0,1-1.4-1.465,3.361,3.361,0,0,1,1.534-4.484l5.756-2.837a.79.79,0,0,1,.681,1.425l-5.755,2.836a1.79,1.79,0,0,0-.892,1.016,1.71,1.71,0,0,0,.079,1.345,1.782,1.782,0,0,0,1.009.9,1.683,1.683,0,0,0,1.337-.079l3.882-1.913,6.961-3.429a.789.789,0,0,1,.682,1.424l-10.843,5.343-1.495.738a1.778,1.778,0,0,0-.8,2.361,1.757,1.757,0,0,0,2.347.805l1.481-.726,3.147-1.543,8.969-4.419a.79.79,0,0,1,.681,1.425l-12.115,5.962a1.781,1.781,0,0,0-.8,2.361,1.756,1.756,0,0,0,2.347.8l4.156-2.044,8.248-4.063a.79.79,0,0,1,.681,1.425l-8.43,4.154a1.79,1.79,0,0,0-.892,1.016,1.714,1.714,0,0,0,.079,1.346,1.783,1.783,0,0,0,1.009.9,1.683,1.683,0,0,0,1.337-.079l15.092-7.426a36.863,36.863,0,0,0,8.745-6l3.082-2.836-9.178-18.862a.8.8,0,0,1,.367-1.056l7.88-3.878a.8.8,0,0,1,.6-.04.781.781,0,0,1,.446.4l9.466,19.35a.8.8,0,0,1-.367,1.056l-7.775,3.825-3.422,3.165a38.279,38.279,0,0,1-9.112,6.266l-15.092,7.427a3.333,3.333,0,0,1-1.455.342A3.42,3.42,0,0,1,627.611,1052.815Zm21.307-36.656,8.745,17.978,6.464-3.179-8.732-17.978ZM610.8,1035.825l-8.3-2.862a.792.792,0,0,1-.485-1l6.962-20.432a.777.777,0,0,1,.393-.448.792.792,0,0,1,.6-.04l8.287,2.836a1.451,1.451,0,0,1,.2.105l1.39.5a4.558,4.558,0,0,0,3.553-.2l.814-.4a6.234,6.234,0,0,1,4.72-.291l16.194,5.619a.785.785,0,0,1,.524.766c-.013.118-.1,2.888-2.045,4.234a5.015,5.015,0,0,1-4.668.264l-6.044-2.083a10.745,10.745,0,0,1-4.667,5.658,8.737,8.737,0,0,1-4.249,1.042,13.393,13.393,0,0,1-4.34-.792.788.788,0,0,1,.511-1.49c2.872.99,5.337.95,7.33-.131a9.625,9.625,0,0,0,4.17-5.475.837.837,0,0,1,.393-.5.8.8,0,0,1,.629-.053l6.806,2.335a3.559,3.559,0,0,0,3.251-.066,3.739,3.739,0,0,0,1.3-2.414l-15.59-5.408a4.582,4.582,0,0,0-3.514.224l-.813.4a6.185,6.185,0,0,1-4.773.276l-.839-.3-6.7,19.653a.779.779,0,0,1-.393.448.754.754,0,0,1-.341.079A.621.621,0,0,1,610.8,1035.825Zm-7.041-4.1,6.818,2.347,6.451-18.9-.026-.013-.157-.078-6.635-2.282Z" fill="#5b6168"/>
    <path id="Shape_1_copy" data-name="Shape 1 copy" d="M645.128,1019.219l-16.193-5.619a6.236,6.236,0,0,0-4.72.29l-.813.4a4.559,4.559,0,0,1-3.553.2l-1.39-.5a1.423,1.423,0,0,0-.2-.105l-8.287-2.836a.8.8,0,0,0-.6.04.78.78,0,0,0-.393.449l-6.962,20.432a.791.791,0,0,0,.485,1l8.3,2.862a.626.626,0,0,0,.262.053.757.757,0,0,0,.341-.08.779.779,0,0,0,.393-.448l6.7-19.653.839.3a6.186,6.186,0,0,0,4.773-.277l.813-.4a4.581,4.581,0,0,1,3.514-.224l15.59,5.408a3.739,3.739,0,0,1-1.3,2.414,3.561,3.561,0,0,1-3.252.066l-6.805-2.335a.806.806,0,0,0-.629.053.836.836,0,0,0-.393.5,9.628,9.628,0,0,1-4.17,5.474c-1.993,1.081-4.458,1.121-7.329.132a.788.788,0,0,0-.511,1.49,13.4,13.4,0,0,0,4.34.791,8.736,8.736,0,0,0,4.248-1.042,10.745,10.745,0,0,0,4.668-5.659l6.044,2.084a5.014,5.014,0,0,0,4.668-.264c1.94-1.345,2.032-4.115,2.045-4.234A.785.785,0,0,0,645.128,1019.219Zm-34.549,14.852-6.818-2.348,6.451-18.928,6.635,2.282.157.079.026.013Z" fill="#398dff"/>
  </g>
</svg>
