<svg xmlns="http://www.w3.org/2000/svg" width="17" height="16" viewBox="0 0 17 16">
  <path id="Forma_1" data-name="Forma 1" d="M293,3099.811V3106h-3.645v-5.777c0-1.453-.525-2.44-1.844-2.44a1.993,1.993,0,0,0-1.869,1.312,2.446,2.446,0,0,0-.125.876V3106h-3.641s.049-9.781,0-10.794h3.642v1.53c0,.013-.016.023-.02.037h.02v-.037a3.629,3.629,0,0,1,3.285-1.783C291.2,3094.951,293,3096.493,293,3099.811ZM278.062,3090a1.874,1.874,0,1,0-.047,3.733h.022a1.875,1.875,0,1,0,.025-3.733Zm-1.844,16h3.643v-10.8h-3.643Z" transform="translate(-276 -3090)" fill="#9d9d9d"/>
</svg>
