<svg xmlns="http://www.w3.org/2000/svg" width="47.02" height="47.991" viewBox="0 0 47.02 47.991">
  <g id="Group_5" data-name="Group 5" transform="translate(-1194.982 -1006.012)">
    <path id="Forma_1" data-name="Forma 1" d="M1218.729,1051.6h-15.491c-.22,0-.437-.008-.653-.023-2.752-.187-4.766-3.072-5.971-5.459a15.729,15.729,0,0,1,4.419-19.331l5.635-4.125a6.852,6.852,0,0,1,4.219-1.457h6.191a7.061,7.061,0,0,1,4.176,1.6l5.733,3.916a15.806,15.806,0,0,1,4.271,5.042,24.959,24.959,0,0,1,2.784-.161c2.956,0,7.96.59,7.96,2.8v9.2a1.419,1.419,0,0,1-.063.4H1242v4.4c0,1.976-4.133,3.2-7.96,3.2a16.954,16.954,0,0,1-4.906-.7,6.334,6.334,0,0,1-10.407.7Zm4.812-8.79c-.045,0-.088,0-.132.006a4.885,4.885,0,0,0-.69.086c-.026.005-.049.013-.076.02a4.412,4.412,0,0,0-.542.158c-.052.019-.1.037-.156.058a4.7,4.7,0,0,0-.581.276l-.009.005a4.92,4.92,0,0,0-1.927,2.033c-.009.017-.018.035-.026.054a4.68,4.68,0,0,0-.241.586c-.007.021-.016.041-.023.063a4.69,4.69,0,0,0-.145.612c-.013.073-.024.147-.033.22s-.018.147-.023.22-.011.175-.014.263c0,.061,0,.123,0,.186a4.769,4.769,0,0,0,9.119,1.929,4.864,4.864,0,0,0,.181-.459.162.162,0,0,0,.007-.019,4.593,4.593,0,0,0,.124-.452c0-.016.009-.031.013-.047.031-.141.052-.285.07-.43,0-.024.008-.048.011-.073a4.988,4.988,0,0,0,.027-.507c0-.166-.009-.329-.025-.492,0-.014-.005-.025-.006-.039-.017-.15-.04-.3-.069-.446,0-.012-.006-.023-.009-.035-.031-.148-.069-.3-.115-.439,0-.011-.008-.022-.012-.031-.047-.143-.1-.285-.16-.425-.035-.083-.076-.163-.117-.243a4.747,4.747,0,0,0-.646-.975l-.033-.036a4.655,4.655,0,0,0-.347-.357c-.028-.026-.057-.054-.086-.079a4.8,4.8,0,0,0-.381-.3c-.027-.019-.052-.04-.08-.059l-.032-.022a4.788,4.788,0,0,0-.619-.349,4.893,4.893,0,0,0-.718-.274l-.011,0a4.721,4.721,0,0,0-.722-.148l-.039-.006a4.517,4.517,0,0,0-.524-.029Zm6.459,3.956c.01.073.022.144.03.217.02.2.031.41.031.617a6.428,6.428,0,0,1-.061.838c-.009.066-.019.13-.03.194a6.331,6.331,0,0,1-.178.8.009.009,0,0,1,0,0,15.537,15.537,0,0,0,4.251.564c3.757,0,6.172-1.161,6.376-1.656l-.005-2.55a17.866,17.866,0,0,1-6.371,1.007,22.869,22.869,0,0,1-4.082-.343C1229.977,1046.561,1229.987,1046.666,1230,1046.769Zm-22.373-22.828-5.635,4.125a14.111,14.111,0,0,0-3.959,17.331c1.439,2.852,3.093,4.481,4.657,4.587.181.013.364.018.547.018h14.455a7.706,7.706,0,0,1-.351-2.022c-.007-.125-.019-.248-.019-.376,0-.03,0-.058,0-.087,0-.069.007-.138.011-.206.009-.193.024-.384.05-.571.005-.043.005-.09.012-.133s.018-.068.024-.1a6.369,6.369,0,0,1,.19-.81c.018-.06.044-.117.064-.177a6.368,6.368,0,0,1,.243-.6c.042-.089.082-.177.127-.264a6.2,6.2,0,0,1,.381-.643c.055-.081.116-.156.174-.233.108-.144.221-.284.341-.418.07-.079.138-.159.211-.235a6.362,6.362,0,0,1,.535-.487c.083-.067.169-.129.256-.192.146-.108.3-.208.452-.3.081-.05.159-.1.243-.148a6.314,6.314,0,0,1,.689-.324c.085-.032.17-.064.256-.094a6.016,6.016,0,0,1,.729-.213c.022,0,.042-.013.063-.018l.015,0a6.4,6.4,0,0,1,.836-.11c.068-.005.136-.008.2-.011.086,0,.171-.013.258-.013.167,0,.33.012.494.024.032,0,.065,0,.1,0a6.372,6.372,0,0,1,.854.143l.112.029a6.322,6.322,0,0,1,.832.269v-7.269a1.4,1.4,0,0,1,.07-.427,1.651,1.651,0,0,1,.082-.178,1.481,1.481,0,0,1,.1-.193,1.756,1.756,0,0,1,.173-.215c.032-.036.064-.071.1-.105a2.63,2.63,0,0,1,.278-.233l.055-.039a7.468,7.468,0,0,1,2.651-.995,14.124,14.124,0,0,0-3.539-4l-5.733-3.914a5.564,5.564,0,0,0-3.245-1.3h-6.191A5.283,5.283,0,0,0,1207.627,1023.941Zm20.045,18.671.027.024c.1.079.187.164.279.248.056.052.114.1.168.154.105.1.2.213.3.325.034.039.07.075.1.114.111.13.213.267.313.408.016.023.035.045.05.068.108.156.207.317.3.481l.015.024a14.793,14.793,0,0,0,4.809.745c.314,0,.6-.014.887-.024,3.245-.163,5.3-1.177,5.49-1.632l-.005-2.819c-.04.021-.086.039-.128.059-.131.066-.267.13-.41.19-.072.031-.146.06-.221.089-.138.054-.279.105-.425.155-.077.027-.155.053-.236.078-.164.053-.333.1-.506.147-.067.018-.13.037-.2.054-.24.059-.485.115-.737.166-.056.011-.113.02-.17.03-.2.038-.4.073-.608.1-.092.013-.184.026-.276.038-.176.024-.354.045-.534.064-.1.011-.194.02-.293.029-.186.016-.373.029-.561.04-.085.005-.172.012-.257.015-.273.013-.544.021-.815.021s-.542-.008-.814-.021c-.085,0-.168-.01-.253-.015-.19-.011-.378-.023-.566-.041l-.287-.028c-.182-.02-.362-.041-.541-.065-.09-.012-.18-.023-.269-.037q-.313-.047-.616-.1c-.054-.011-.109-.019-.161-.029q-.379-.076-.742-.167c-.062-.015-.122-.034-.185-.05-.176-.048-.349-.1-.517-.149-.078-.024-.154-.05-.231-.077-.147-.05-.288-.1-.427-.156-.075-.03-.149-.059-.221-.089-.141-.059-.275-.123-.406-.187-.041-.022-.09-.04-.131-.061C1227.673,1041.6,1227.672,1042.3,1227.672,1042.612Zm0-3.8c.211.442,2.621,1.595,6.365,1.595s6.172-1.162,6.377-1.658l-.005-2.55c-.022.009-.049.017-.07.027-.187.079-.384.156-.592.225l-.031.011c-.221.072-.453.136-.691.2-.076.019-.154.036-.232.054-.171.04-.344.076-.52.112l-.256.048q-.289.051-.583.094l-.188.028c-.256.035-.514.065-.77.091l-.189.016c-.2.018-.391.034-.585.048l-.249.015c-.178.01-.35.018-.521.024l-.219.008c-.233.006-.461.011-.675.011s-.443,0-.676-.011l-.216-.008c-.172-.006-.346-.014-.524-.024l-.247-.015c-.193-.014-.387-.03-.583-.047l-.192-.017c-.256-.024-.513-.055-.77-.089l-.185-.028c-.2-.029-.391-.059-.584-.094-.086-.015-.17-.031-.256-.049-.176-.033-.348-.071-.518-.11-.077-.018-.157-.035-.233-.055-.233-.058-.462-.121-.679-.192l-.034-.011c-.211-.071-.41-.148-.6-.229-.02-.009-.044-.016-.064-.025C1227.678,1036.973,1227.677,1037.9,1227.677,1038.81Zm3.109-5.372c-.17.025-.335.052-.49.08-.141.025-.274.052-.4.08-.107.023-.222.044-.321.068-.214.052-.409.105-.587.16-.08.023-.149.049-.22.072-.1.034-.193.068-.28.1s-.145.058-.208.085-.112.051-.163.078a2.418,2.418,0,0,0-.24.135,1.233,1.233,0,0,0-.113.08c-.011.008-.017.016-.027.024a.423.423,0,0,0,.05.048.9.9,0,0,0,.111.078c.052.033.116.068.185.1s.115.058.183.088c.084.038.183.075.284.113.082.031.164.062.255.092.117.039.25.076.384.115.106.03.209.059.325.088.151.037.322.071.491.106.128.027.25.054.389.078.191.034.4.063.615.092.145.02.279.042.433.059.25.028.526.049.8.069.14.011.267.025.414.033.435.024.895.039,1.386.039s.951-.014,1.386-.039c.147-.009.274-.023.414-.033.275-.021.552-.041.8-.069.153-.017.288-.04.432-.059.211-.029.424-.058.616-.092.139-.024.26-.051.388-.078.17-.034.34-.068.491-.106.116-.029.22-.059.325-.088.134-.039.268-.076.384-.115.093-.031.175-.061.255-.092.1-.039.2-.076.284-.113.068-.03.127-.059.183-.088a2.127,2.127,0,0,0,.186-.1,1.239,1.239,0,0,0,.111-.078.5.5,0,0,0,.053-.052c-.446-.412-2.55-1.192-6.313-1.191A21.523,21.523,0,0,0,1230.785,1033.438Zm-11.929-13.029h-9.493a.8.8,0,0,1,0-1.6h8.756v-.8h-9.553a.8.8,0,0,1,0-1.6h9.553a.709.709,0,0,0,.8,0,.8.8,0,0,1,.8.8v1.846a2.434,2.434,0,0,0,3.363-.012.794.794,0,0,1,1.126,0,.8.8,0,0,1,0,1.131,3.924,3.924,0,0,1-5.345.234Zm-8.87-4.8a2.31,2.31,0,0,1-2.173-1.576,12.621,12.621,0,0,0-2.39-3.554,2.4,2.4,0,0,1-.807-2.273,2.273,2.273,0,0,1,1.535-1.745,6.23,6.23,0,0,1,6.128.773.763.763,0,0,0,.972,0,6.229,6.229,0,0,1,6.128-.774,2.273,2.273,0,0,1,1.535,1.745,2.4,2.4,0,0,1-.807,2.273,10.948,10.948,0,0,0-2.032,3.555,2.311,2.311,0,0,1-2.173,1.576Zm-3.333-7.629a.68.68,0,0,0-.473.531.78.78,0,0,0,.275.748,13.832,13.832,0,0,1,2.865,4.254.717.717,0,0,0,.668.5h5.916a.718.718,0,0,0,.668-.5,12.424,12.424,0,0,1,2.507-4.254.782.782,0,0,0,.274-.748.68.68,0,0,0-.473-.531,4.67,4.67,0,0,0-4.633.5,2.347,2.347,0,0,1-2.959,0,3.972,3.972,0,0,0-2.564-.873A6.569,6.569,0,0,0,1206.654,1007.98Z" fill="#5b6168"/>
    <path id="Forma_1-2" data-name="Forma 1" d="M1210,1029a8,8,0,1,0,8,8A8,8,0,0,0,1210,1029Zm2.182,11.089a2.544,2.544,0,0,1-1.705.779V1042h-.947v-1.126a2.481,2.481,0,0,1-2.3-2.16l1.465-.382a1.274,1.274,0,0,0,1.348,1.237,1.043,1.043,0,0,0,.788-.265.894.894,0,0,0,.252-.64.705.705,0,0,0-.252-.588,4.547,4.547,0,0,0-1.121-.508,6.589,6.589,0,0,1-1.221-.536,2.017,2.017,0,0,1-.714-.74,2.2,2.2,0,0,1-.275-1.111,2.463,2.463,0,0,1,.49-1.5,2.189,2.189,0,0,1,1.541-.812V1032h.947v.874a2.291,2.291,0,0,1,2.056,1.8l-1.3.535q-.382-1.1-1.181-1.1a.863.863,0,0,0-.644.246.818.818,0,0,0-.243.6.667.667,0,0,0,.234.549,4.01,4.01,0,0,0,1,.473,8.923,8.923,0,0,1,1.323.582,2.082,2.082,0,0,1,.767.757,2.179,2.179,0,0,1,.286,1.129A2.389,2.389,0,0,1,1212.182,1040.089Z" fill="#398dff"/>
  </g>
</svg>
