<svg xmlns="http://www.w3.org/2000/svg" width="20" height="16" viewBox="0 0 20 16">
  <path id="Forma_1" data-name="Forma 1" d="M256.448,3091.3a8.331,8.331,0,0,1-2.607.981,4.119,4.119,0,0,0-2.994-1.277,4.073,4.073,0,0,0-4.1,4.04,4,4,0,0,0,.106.92,11.707,11.707,0,0,1-8.457-4.221,3.965,3.965,0,0,0-.555,2.031,4.022,4.022,0,0,0,1.825,3.362,4.143,4.143,0,0,1-1.858-.507v.051a4.061,4.061,0,0,0,3.291,3.962,4.16,4.16,0,0,1-1.853.068,4.1,4.1,0,0,0,3.832,2.807,8.315,8.315,0,0,1-5.1,1.728,8.749,8.749,0,0,1-.979-.055,11.754,11.754,0,0,0,6.29,1.815,11.5,11.5,0,0,0,11.673-11.5l-.013-.523a8.19,8.19,0,0,0,2.05-2.088,8.308,8.308,0,0,1-2.356.636A4.073,4.073,0,0,0,256.448,3091.3Z" transform="translate(-237 -3091)" fill="#9d9d9d"/>
</svg>
